<?xml version="1.0" encoding="UTF-8"?>
<svg version="1.1" xmlns="http://www.w3.org/2000/svg" width="200" height="200">
<path d="M0 0 C66 0 132 0 200 0 C200 66 200 132 200 200 C134 200 68 200 0 200 C0 134 0 68 0 0 Z " fill="#892BDF" transform="translate(0,0)"/>
<path d="M0 0 C0.5625 2.5625 0.5625 2.5625 0 6 C-2.09832251 7.9234623 -4.35242746 9.4922126 -6.671875 11.140625 C-10.0988842 13.87763235 -12.0927512 17.09358679 -14 21 C-14.54333984 22.09248047 -14.54333984 22.09248047 -15.09765625 23.20703125 C-17.80039209 31.57264219 -17.36616951 42.43121247 -13.5625 50.3125 C-10.7422403 55.14436673 -7.5062388 59.71479879 -4.26586914 64.27319336 C0.84718956 71.49733792 3.74054181 77.18379266 5 86 C15.56 86 26.12 86 37 86 C37 84.02 37 82.04 37 80 C38.07281965 77.45775981 39.15652682 75.19856274 40.5 72.8125 C41.03814331 71.82685059 41.03814331 71.82685059 41.5871582 70.82128906 C43.86351843 66.745974 46.37002335 62.97980242 49.1875 59.25 C56.83883835 48.97275855 59.75311056 39.72581697 58 27 C55.40521462 18.76273588 50.63651054 12.45568997 44 7 C43.01 6.505 43.01 6.505 42 6 C42 4.02 42 2.04 42 0 C50.13291686 2.28738287 56.01263919 9.48131641 60.5234375 16.2578125 C65.52666136 25.54951395 66.2540543 35.71217536 63.8125 45.8125 C61.10331642 54.16663701 56.01402511 61.10388619 51.09375 68.30078125 C46.12045491 75.70230265 43.629652 82.23449332 41 91 C27.47 91 13.94 91 0 91 C-0.99 87.04 -1.98 83.08 -3 79 C-4.3955024 75.74726905 -4.3955024 75.74726905 -6.125 73.125 C-6.73214844 72.14015625 -7.33929688 71.1553125 -7.96484375 70.140625 C-9.40668786 67.91559109 -10.85624584 65.69728891 -12.31640625 63.484375 C-20.49436401 51.07701897 -25.10945797 41.49984601 -22.52734375 26.19921875 C-19.83961118 15.85064365 -12.92558646 7.08207067 -4.1875 1.0625 C-2 0 -2 0 0 0 Z " fill="#F9EFFC" transform="translate(79,56)"/>
<path d="M0 0 C4.62 0 9.24 0 14 0 C14 2.64 14 5.28 14 8 C18.29 8 22.58 8 27 8 C27 6.68 27 5.36 27 4 C29.64 4 32.28 4 35 4 C35 6.64 35 9.28 35 12 C33.68 12 32.36 12 31 12 C31 18.27 31 24.54 31 31 C32.32 31 33.64 31 35 31 C35 32.32 35 33.64 35 35 C33.35 35 31.7 35 30 35 C30 33.68 30 32.36 30 31 C22.41 31 14.82 31 7 31 C7 25.72 7 20.44 7 15 C4.69 15 2.38 15 0 15 C0 10.05 0 5.1 0 0 Z " fill="#F1AF4A" transform="translate(81,34)"/>
<path d="M0 0 C0.33 0 0.66 0 1 0 C1 14.19 1 28.38 1 43 C-13.19 43 -27.38 43 -42 43 C-38.87490026 41.43745013 -36.09804913 40.33095989 -32.8125 39.25 C-27.95741884 37.52764859 -24.03269034 35.28844243 -19.875 32.26953125 C-18 31 -18 31 -15 30 C-14.31379969 28.67661368 -13.65213539 27.34050052 -13 26 C-12.2575 25.175 -11.515 24.35 -10.75 23.5 C-5.09661262 16.89040169 -1.62917237 8.47169635 0 0 Z " fill="#030006" transform="translate(199,157)"/>
<path d="M0 0 C0.33 0 0.66 0 1 0 C1.21914063 0.89460937 1.43828125 1.78921875 1.6640625 2.7109375 C3.73081283 10.59147331 6.22583658 17.31376609 11 24 C11.43957031 24.63421875 11.87914062 25.2684375 12.33203125 25.921875 C19.48655218 35.24130861 31.62684852 40.95042147 43 43 C43 43.33 43 43.66 43 44 C28.81 44 14.62 44 0 44 C0 29.48 0 14.96 0 0 Z " fill="#020005" transform="translate(0,156)"/>
<path d="M0 0 C14.52 0 29.04 0 44 0 C44 13.86 44 27.72 44 42 C42.55103239 39.10206479 41.40993573 36.45172392 40.3125 33.4375 C37.64387257 26.68567196 34.15047813 19.10031875 28 15 C28 14.34 28 13.68 28 13 C27.43023437 12.72929687 26.86046875 12.45859375 26.2734375 12.1796875 C23.93776972 10.96770869 21.82171154 9.57198064 19.625 8.125 C13.47269715 4.36730604 6.93986538 2.69996702 0 1 C0 0.67 0 0.34 0 0 Z " fill="#030007" transform="translate(156,0)"/>
<path d="M0 0 C13.86 0 27.72 0 42 0 C39.18666571 1.87555619 37.05212013 2.71811483 33.875 3.75 C28.98720882 5.46785764 25.05595908 7.69466207 20.875 10.73046875 C19 12 19 12 16 13 C15.67 13.99 15.34 14.98 15 16 C13.84564453 17.13501953 13.84564453 17.13501953 12.66796875 18.29296875 C6.45311412 24.59881686 2.53074969 33.32575176 1 42 C0.67 42 0.34 42 0 42 C0 28.14 0 14.28 0 0 Z " fill="#030006" transform="translate(0,0)"/>
<path d="M0 0 C1.77007714 -0.08114106 3.54122098 -0.13925505 5.3125 -0.1875 C6.29863281 -0.22230469 7.28476563 -0.25710937 8.30078125 -0.29296875 C11 0 11 0 12.65039062 1.26757812 C14.29259762 3.37559202 14.35254862 4.3703447 14.29296875 7.01171875 C14.28172974 8.03591919 14.28172974 8.03591919 14.27026367 9.08081055 C14.24295166 9.94101807 14.21563965 10.80122559 14.1875 11.6875 C14.125625 14.430625 14.06375 17.17375 14 20 C7.4 20 0.8 20 -6 20 C-6 15.71 -6 11.42 -6 7 C-4.02 7 -2.04 7 0 7 C0 4.69 0 2.38 0 0 Z " fill="#F6B603" transform="translate(96,43)"/>
<path d="M0 0 C12.54 0 25.08 0 38 0 C31.49485811 6.50514189 28.12047465 8.14151837 19.1875 8.5 C12.56313707 8.3656746 7.37461441 6.94212421 2 3 C1.34 2.01 0.68 1.02 0 0 Z " fill="#FBF4FD" transform="translate(81,163)"/>
<path d="M0 0 C4.62 0 9.24 0 14 0 C14 4.95 14 9.9 14 15 C9.38 15 4.76 15 0 15 C0 10.05 0 5.1 0 0 Z " fill="#EDCEF8" transform="translate(81,34)"/>
<path d="M0 0 C13.2 0 26.4 0 40 0 C40 1.32 40 2.64 40 4 C26.8 4 13.6 4 0 4 C0 2.68 0 1.36 0 0 Z " fill="#FCF0FE" transform="translate(80,156)"/>
<path d="M0 0 C13.2 0 26.4 0 40 0 C40 1.32 40 2.64 40 4 C26.8 4 13.6 4 0 4 C0 2.68 0 1.36 0 0 Z " fill="#FCF3FD" transform="translate(80,149)"/>
<path d="M0 0 C2.64 0 5.28 0 8 0 C8 2.64 8 5.28 8 8 C6.68 8 5.36 8 4 8 C4 14.27 4 20.54 4 27 C5.32 27 6.64 27 8 27 C8 28.32 8 29.64 8 31 C6.35 31 4.7 31 3 31 C3 23.08 3 15.16 3 7 C2.01 7 1.02 7 0 7 C0 4.69 0 2.38 0 0 Z " fill="#C77BB9" transform="translate(108,38)"/>
<path d="M0 0 C2.64 0 5.28 0 8 0 C8 2.64 8 5.28 8 8 C5.36 8 2.72 8 0 8 C0 5.36 0 2.72 0 0 Z " fill="#EAD9FB" transform="translate(80,65)"/>
<path d="M0 0 C0.33 0 0.66 0 1 0 C1 5.28 1 10.56 1 16 C-1.64 16 -4.28 16 -7 16 C-7 18.64 -7 21.28 -7 24 C-7.33 24 -7.66 24 -8 24 C-8.33 21.03 -8.66 18.06 -9 15 C-9.99 15 -10.98 15 -12 15 C-10.68 14.34 -9.36 13.68 -8 13 C-8 11.02 -8 9.04 -8 7 C-7.67 7 -7.34 7 -7 7 C-7 8.65 -7 10.3 -7 12 C-6.34 12 -5.68 12 -5 12 C-4.67 12.66 -4.34 13.32 -4 14 C-2.68 14.33 -1.36 14.66 0 15 C0 10.05 0 5.1 0 0 Z " fill="#7F2CAF" transform="translate(87,49)"/>
<path d="M0 0 C2.31 0 4.62 0 7 0 C7 2.31 7 4.62 7 7 C4.69 7 2.38 7 0 7 C0 4.69 0 2.38 0 0 Z " fill="#F6AF43" transform="translate(84,81)"/>
<path d="M0 0 C2.31 0 4.62 0 7 0 C7 2.31 7 4.62 7 7 C4.69 7 2.38 7 0 7 C0 4.69 0 2.38 0 0 Z " fill="#FBDBFD" transform="translate(101,73)"/>
<path d="M0 0 C2.31 0 4.62 0 7 0 C7 2.31 7 4.62 7 7 C4.69 7 2.38 7 0 7 C0 4.69 0 2.38 0 0 Z " fill="#F1E8FC" transform="translate(108,38)"/>
<path d="M0 0 C-0.33 1.32 -0.66 2.64 -1 4 C0.65 4 2.3 4 4 4 C4 4.66 4 5.32 4 6 C-3.42857143 6.14285714 -3.42857143 6.14285714 -7 5 C-7 4.01 -7 3.02 -7 2 C-8.32 1.67 -9.64 1.34 -11 1 C-7.26562152 0.12132271 -3.83225427 -0.08912219 0 0 Z " fill="#8C2ED1" transform="translate(87,75)"/>
<path d="M0 0 C0 4.3113817 -1.19887464 7.73155152 -3.5 11.375 C-5.47890972 14.83809201 -6.14272764 18.10930238 -7 22 C-7.33 22 -7.66 22 -8 22 C-7.96553424 14.05564306 -5.81598089 5.81598089 0 0 Z " fill="#7E2DC8" transform="translate(129,125)"/>
<path d="M0 0 C0 0.66 0 1.32 0 2 C-4.71709702 6.3346297 -8.52765174 6.37496767 -14.8046875 6.140625 C-15.52914062 6.09421875 -16.25359375 6.0478125 -17 6 C-13.87247409 4.35471386 -10.6946943 3.08297501 -7.375 1.875 C-6.41335937 1.52179688 -5.45171875 1.16859375 -4.4609375 0.8046875 C-2 0 -2 0 0 0 Z " fill="#130426" transform="translate(174,194)"/>
<path d="M0 0 C-2.65420469 1.76946979 -4.86290317 2.8093132 -7.8125 3.9375 C-11.6656792 5.44379407 -15.34077568 7.07409246 -19 9 C-17.77873441 5.33620323 -16.21114998 4.6840187 -12.90234375 2.91796875 C-8.55620912 0.820758 -4.83697894 -0.28452817 0 0 Z " fill="#17052B" transform="translate(39,1)"/>
<path d="M0 0 C0.33 0 0.66 0 1 0 C1.64665663 2.24976352 2.29229523 4.49981967 2.9375 6.75 C3.29714844 8.00296875 3.65679687 9.2559375 4.02734375 10.546875 C4.72554149 13.02561719 5.39943726 15.49660162 6 18 C5.34 18 4.68 18 4 18 C1.8480563 14.77208445 1.79913557 13.71599191 2 10 C1.34 10 0.68 10 0 10 C0 6.7 0 3.4 0 0 Z " fill="#190530" transform="translate(0,156)"/>
<path d="M0 0 C1.65 0 3.3 0 5 0 C5 1.98 5 3.96 5 6 C3.35 6 1.7 6 0 6 C0 4.02 0 2.04 0 0 Z " fill="#DD9461" transform="translate(97,92)"/>
<path d="M0 0 C1.32 0 2.64 0 4 0 C4 0.66 4 1.32 4 2 C4.721875 2.226875 5.44375 2.45375 6.1875 2.6875 C9.53209313 4.24831013 11.51603959 6.3031287 14 9 C13.67 9.66 13.34 10.32 13 11 C12.01 10.34 11.02 9.68 10 9 C10 8.34 10 7.68 10 7 C9.46375 6.7525 8.9275 6.505 8.375 6.25 C5.42838581 4.69915043 2.72082434 2.91694442 0 1 C0 0.67 0 0.34 0 0 Z " fill="#16042C" transform="translate(174,6)"/>
<path d="M0 0 C0.33 0.66 0.66 1.32 1 2 C-0.1796875 4.3125 -0.1796875 4.3125 -1.875 7 C-2.42929688 7.886875 -2.98359375 8.77375 -3.5546875 9.6875 C-4.03164062 10.450625 -4.50859375 11.21375 -5 12 C-5.33 12.66 -5.66 13.32 -6 14 C-6.66 14 -7.32 14 -8 14 C-6.58036591 8.32146365 -3.60636039 4.46825784 0 0 Z " fill="#752EB9" transform="translate(13,16)"/>
<path d="M0 0 C1.65 0 3.3 0 5 0 C5 1.65 5 3.3 5 5 C3.35 5 1.7 5 0 5 C0 3.35 0 1.7 0 0 Z " fill="#E8BBFE" transform="translate(83,101)"/>
<path d="M0 0 C1.65 0 3.3 0 5 0 C5 1.65 5 3.3 5 5 C3.35 5 1.7 5 0 5 C0 3.35 0 1.7 0 0 Z " fill="#F4D3FE" transform="translate(105,21)"/>
<path d="M0 0 C1.12894876 0.93274109 2.25300876 1.87140122 3.375 2.8125 C4.00148438 3.33457031 4.62796875 3.85664063 5.2734375 4.39453125 C7 6 7 6 9 9 C4.74822077 8.52758009 2.70030797 6.15035929 0 3 C0 2.01 0 1.02 0 0 Z " fill="#180630" transform="translate(12,182)"/>
<path d="M0 0 C1.32 0 2.64 0 4 0 C4 1.65 4 3.3 4 5 C2.68 5 1.36 5 0 5 C0 3.35 0 1.7 0 0 Z " fill="#FBDEFE" transform="translate(120,78)"/>
<path d="M0 0 C1.65 0 3.3 0 5 0 C5 1.32 5 2.64 5 4 C3.35 4 1.7 4 0 4 C0 2.68 0 1.36 0 0 Z " fill="#E19573" transform="translate(111,65)"/>
<path d="M0 0 C0.33 0 0.66 0 1 0 C1 3.3 1 6.6 1 10 C0.01 10 -0.98 10 -2 10 C-1.34 6.7 -0.68 3.4 0 0 Z " fill="#16042B" transform="translate(199,157)"/>
<path d="M0 0 C1.98 0.495 1.98 0.495 4 1 C4 1.99 4 2.98 4 4 C2.35 3.67 0.7 3.34 -1 3 C-0.67 2.01 -0.34 1.02 0 0 Z " fill="#8B1EE8" transform="translate(67,47)"/>
</svg>
