<?xml version="1.0" encoding="UTF-8"?>
<svg version="1.1" xmlns="http://www.w3.org/2000/svg" width="1080" height="1080">
<path d="M0 0 C356.4 0 712.8 0 1080 0 C1080 356.4 1080 712.8 1080 1080 C723.6 1080 367.2 1080 0 1080 C0 723.6 0 367.2 0 0 Z " fill="#892BDE" transform="translate(0,0)"/>
<path d="M0 0 C0 13.2 0 26.4 0 40 C-3.58875 41.959375 -7.1775 43.91875 -10.875 45.9375 C-12.57052002 46.86357056 -12.57052002 46.86357056 -14.30029297 47.80834961 C-15.18861816 48.29311768 -16.07694336 48.77788574 -16.9921875 49.27734375 C-17.90339355 49.77484131 -18.81459961 50.27233887 -19.75341797 50.78491211 C-21.15770467 51.54443557 -22.57202324 52.28601162 -24 53 C-21.69 53.33 -19.38 53.66 -17 54 C-20.54029997 57.73184605 -24.26078757 60.76654665 -28.5 63.6875 C-38.377362 70.63843012 -48.01730916 77.5083575 -56.29296875 86.3828125 C-58 88 -58 88 -60 88 C-60.23976563 88.55558594 -60.47953125 89.11117187 -60.7265625 89.68359375 C-62.28302531 92.51482824 -64.22688586 94.64674057 -66.375 97.0625 C-84.32279833 118.22565932 -101.40677276 148.4071501 -106 176 C-106.37327392 178.0521605 -106.74700298 180.10423825 -107.12109375 182.15625 C-109.27047037 194.3041068 -111.15149336 206.26213951 -111.16796875 218.6171875 C-111.17129715 219.51382111 -111.17462555 220.41045471 -111.17805481 221.33425903 C-111.18308875 223.22511284 -111.18546424 225.11597543 -111.18530273 227.00683594 C-111.1874677 229.83284062 -111.20560195 232.65844024 -111.22460938 235.484375 C-111.33862263 271.4810582 -105.26203258 309.50535752 -87 341 C-86.54625 341.79100098 -86.0925 342.58200195 -85.625 343.39697266 C-71.2713322 368.19349447 -54.514336 391.61495158 -38 415 C33 515.58165294 33 515.58165294 33 574 C103.62 574 174.24 574 247 574 C247 560.47 247 546.94 247 533 C251.12814043 520.88627645 251.12814043 520.88627645 254.65283203 515.24316406 C256.64002165 511.93430248 258.24535682 508.46405786 259.90649414 504.9831543 C265.51850687 493.30531353 271.87628987 482.03402414 278.36474609 470.82617188 C279.43225635 468.98121834 280.49529233 467.13366661 281.55322266 465.28320312 C294.37489712 442.8585818 308.7780984 421.32743398 324.25390625 400.6484375 C332.66075022 389.39027229 340.54048969 377.90781929 348 366 C348.43231934 365.31856934 348.86463867 364.63713867 349.31005859 363.93505859 C360.89151021 345.57444441 371.57302372 324.76561019 378 304 C378.2465332 303.21238281 378.49306641 302.42476562 378.74707031 301.61328125 C386.45701141 276.47754235 389.18802556 251.14255004 389.24023438 224.94677734 C389.24988987 222.03323248 389.28098804 219.12041018 389.3125 216.20703125 C389.40526448 200.05287007 388.98362233 182.83155062 382.5625 167.75 C382.05360229 166.48965942 382.05360229 166.48965942 381.53442383 165.20385742 C368.70765657 134.1276476 352.00149206 106.39743206 329.3203125 81.54296875 C327.69832348 79.76533432 326.08999545 77.97518179 324.4921875 76.17578125 C320.26990195 71.44346426 316.05310155 66.94992367 311.1875 62.87890625 C308.94720225 60.95465051 306.8137345 58.93536761 304.67407227 56.90063477 C299.19777236 51.7281422 293.6459581 47.57206998 287 44 C284.69 42.68 282.38 41.36 280 40 C280 26.8 280 13.6 280 0 C286.55559293 1.96667788 292.58018115 3.89721288 298.75 6.6875 C299.52585449 7.03780273 300.30170898 7.38810547 301.10107422 7.74902344 C319.58585422 16.23720402 335.45440673 27.81097664 350 42 C350.69947754 42.67901367 351.39895508 43.35802734 352.11962891 44.05761719 C360.93479654 52.64694631 369.5004882 61.21802809 377 71 C378.04882668 72.31146137 379.09979378 73.62121247 380.15234375 74.9296875 C406.25691181 107.58790309 423.08399156 142.81276823 431 184 C431.15694336 184.8132373 431.31388672 185.62647461 431.47558594 186.46435547 C431.91757217 188.80688249 432.34019886 191.1516414 432.75 193.5 C432.86585449 194.15685791 432.98170898 194.81371582 433.10107422 195.49047852 C440.34529032 240.16314449 434.35741598 289.50671249 417 331 C416.67273926 331.80050781 416.34547852 332.60101562 416.00830078 333.42578125 C410.64957078 346.47119135 403.93369708 358.73589975 397 371 C396.55188965 371.80695313 396.1037793 372.61390625 395.64208984 373.4453125 C381.67967411 398.52489437 364.90245323 422.13275355 348.61940002 445.74264526 C345.47560902 450.30125132 342.36885404 454.88219205 339.3125 459.5 C338.88517578 460.14324219 338.45785156 460.78648437 338.01757812 461.44921875 C337.01057221 462.96538495 336.00508581 464.48256026 335 466 C334.34 464.68 333.68 463.36 333 462 C315.5492862 479.87539932 301.6671368 502.16217469 294 526 C293.76619629 526.71655762 293.53239258 527.43311523 293.29150391 528.17138672 C288.34175554 543.47772434 284.7882281 558.80471442 282.6875 574.75 C281 585 281 585 274 608 C183.58 608 93.16 608 0 608 C-18 538 -18 538 -21 526 C-22.51399688 522.2752997 -24.05283801 518.7238747 -25.8125 515.125 C-26.28896973 514.14031738 -26.76543945 513.15563477 -27.25634766 512.14111328 C-32.19602526 502.1935699 -38.1250815 492.97698993 -44.23144531 483.71728516 C-47.66865532 478.43620462 -50.93209153 473.04615519 -54.21044922 467.66552734 C-58.49501807 460.6868193 -63.04383622 453.89224112 -67.6015625 447.09085083 C-112.63934154 379.75335617 -155.16672752 311.9234746 -155.25 228.3125 C-155.25133942 227.51029022 -155.25267883 226.70808044 -155.25405884 225.88156128 C-155.24874688 211.09324672 -154.26243243 196.63366344 -152 182 C-151.89316895 181.2898877 -151.78633789 180.57977539 -151.67626953 179.84814453 C-144.87469246 136.9501847 -118.68871131 92.78993509 -89.2109375 61.359375 C-87.34394013 59.36703152 -85.57010414 57.33771254 -83.8125 55.25 C-75.56935576 45.79864076 -66.54922643 36.84329868 -56.66015625 29.125 C-54.44841876 27.35820823 -52.33999595 25.54064144 -50.2265625 23.66015625 C-35.21575365 10.45993494 -20.48582866 0 0 0 Z " fill="#F8EDFB" transform="translate(385,247)"/>
<path d="M0 0 C31.02 0 62.04 0 94 0 C94 17.82 94 35.64 94 54 C122.38 54 150.76 54 180 54 C180 60.6 180 67.2 180 74 C186.93 74 193.86 74 201 74 C201 117.89 201 161.78 201 207 C211.89 207 222.78 207 234 207 C234 215.91 234 224.82 234 234 C222.78 234 211.56 234 200 234 C200 225.09 200 216.18 200 207 C149.51 207 99.02 207 47 207 C47 172.02 47 137.04 47 101 C31.49 101 15.98 101 0 101 C0 67.67 0 34.34 0 0 Z " fill="#F5B503" transform="translate(398,100)"/>
<path d="M0 0 C83.16 0 166.32 0 252 0 C224.63409596 31.92688805 190.30139694 51.76440226 148.15527344 55.42944336 C119.79871317 57.53160842 91.02732463 56.52305062 64 47 C62.695343 46.56631447 61.39065517 46.13272172 60.0859375 45.69921875 C44.78022128 40.44118396 29.9991216 32.64450958 17 23 C16.02417969 22.27941406 15.04835938 21.55882812 14.04296875 20.81640625 C10.20672204 17.57442948 7.75146524 13.48232035 5.125 9.25 C4.62742187 8.47011719 4.12984375 7.69023438 3.6171875 6.88671875 C0 1.17275498 0 1.17275498 0 0 Z " fill="#FAF3FC" transform="translate(399,962)"/>
<path d="M0 0 C31.02 0 62.04 0 94 0 C94 33.33 94 66.66 94 101 C62.98 101 31.96 101 0 101 C0 67.67 0 34.34 0 0 Z " fill="#ECCCF6" transform="translate(398,100)"/>
<path d="M0 0 C88.11 0 176.22 0 267 0 C267 8.91 267 17.82 267 27 C178.89 27 90.78 27 0 27 C0 18.09 0 9.18 0 0 Z " fill="#F9ECFD" transform="translate(392,915)"/>
<path d="M0 0 C88.11 0 176.22 0 267 0 C267 8.91 267 17.82 267 27 C178.89 27 90.78 27 0 27 C0 18.09 0 9.18 0 0 Z " fill="#FAF0FC" transform="translate(392,868)"/>
<path d="M0 0 C28.38 0 56.76 0 86 0 C86 3.63 86 7.26 86 11 C83.8515625 9.99088542 81.703125 8.98177083 79.5546875 7.97265625 C73.44039804 5.6447387 67.17518914 5.85336464 60.73046875 5.8671875 C59.73606277 5.86623077 58.7416568 5.86527405 57.71711731 5.86428833 C55.61162249 5.86360902 53.50612554 5.86544592 51.40063477 5.86962891 C48.23644062 5.87491819 45.07239251 5.86970801 41.90820312 5.86328125 C39.84895803 5.86394329 37.78971302 5.86522703 35.73046875 5.8671875 C34.34821358 5.86415115 34.34821358 5.86415115 32.93803406 5.86105347 C24.23510693 5.89086144 15.73714811 6.48605011 7 7 C7 22.18 7 37.36 7 53 C-6.53 53 -20.06 53 -34 53 C-34 81.71 -34 110.42 -34 140 C10.22 140 54.44 140 100 140 C100 134.06 100 128.12 100 122 C100.05499973 118.94853903 100.1177446 115.90465209 100.21875 112.85546875 C100.26512876 111.27751819 100.31109041 109.69955532 100.35668945 108.12158203 C100.38042633 107.3183551 100.40416321 106.51512817 100.42861938 105.68756104 C100.86723666 90.32526741 101.17743789 74.95647131 101.28710938 59.58828735 C101.30386765 57.63246329 101.327648 55.67668519 101.35888672 53.72103882 C101.51711134 43.40410443 101.62697799 34.47576088 97 25 C96.01 22.525 96.01 22.525 95 20 C98.96 20 102.92 20 107 20 C107 63.89 107 107.78 107 153 C117.89 153 128.78 153 140 153 C140 161.91 140 170.82 140 180 C128.78 180 117.56 180 106 180 C106 171.09 106 162.18 106 153 C55.51 153 5.02 153 -47 153 C-47 118.02 -47 83.04 -47 47 C-31.49 47 -15.98 47 0 47 C0 31.49 0 15.98 0 0 Z " fill="#F0AE49" transform="translate(492,154)"/>
<path d="M0 0 C17.49 0 34.98 0 53 0 C53 17.49 53 34.98 53 53 C35.51 53 18.02 53 0 53 C0 35.51 0 18.02 0 0 Z " fill="#E9D8FA" transform="translate(392,308)"/>
<path d="M0 0 C2.31 0 4.62 0 7 0 C7 34.98 7 69.96 7 106 C-10.49 106 -27.98 106 -46 106 C-46 123.82 -46 141.64 -46 160 C-48.31 160 -50.62 160 -53 160 C-53.69422771 154.18340456 -54.38797732 148.36675236 -55.08129883 142.55004883 C-55.31684695 140.57444751 -55.55252191 138.59886131 -55.78833008 136.62329102 C-56.12875813 133.77103654 -56.46871829 130.91872662 -56.80859375 128.06640625 C-56.91280136 127.19415909 -57.01700897 126.32191193 -57.12437439 125.42323303 C-57.61531798 121.29952931 -58.09956201 117.17511251 -58.56835938 113.04882812 C-58.64928833 112.33738647 -58.73021729 111.62594482 -58.81359863 110.89294434 C-59.17202111 107.25309012 -59.05798423 103.65300655 -59 100 C-59.64066406 100.01160156 -60.28132813 100.02320313 -60.94140625 100.03515625 C-66.08653222 100.08883119 -70.93024924 99.88169578 -76 99 C-73.74872299 96.52202097 -71.51780676 95.05282631 -68.55078125 93.51953125 C-67.78677002 93.12096924 -67.02275879 92.72240723 -66.2355957 92.31176758 C-65.27097412 91.81700928 -64.30635254 91.32225098 -63.3125 90.8125 C-60.239375 89.224375 -57.16625 87.63625 -54 86 C-53.67 72.8 -53.34 59.6 -53 46 C-50.69 46 -48.38 46 -46 46 C-46 57.22 -46 68.44 -46 80 C-41.71 80 -37.42 80 -33 80 C-27 90.75 -27 90.75 -27 93 C-25.80503906 93.26554687 -24.61007812 93.53109375 -23.37890625 93.8046875 C-15.5859375 95.53645833 -7.79296875 97.26822917 0 99 C0 66.33 0 33.66 0 0 Z " fill="#7F2CB0" transform="translate(438,201)"/>
<path d="M0 0 C0.4418813 10.47422334 -0.64431688 19.8333676 -3 30 C-3.23203125 31.0209375 -3.4640625 32.041875 -3.703125 33.09375 C-7.58336268 47.54953745 -15.15797802 61.33512783 -22.6875 74.1875 C-34.17744448 94.02614336 -40.49247019 116.94823453 -44.4921875 139.40234375 C-45 142 -45 142 -46 144 C-48.31 144 -50.62 144 -53 144 C-53.59144349 126.58527513 -51.60256036 109.02656368 -48 92 C-47.82597656 91.1764502 -47.65195312 90.35290039 -47.47265625 89.50439453 C-40.92370553 59.1477497 -28.88914289 23.23030092 -4.25 2.625 C-3.65703125 2.12226562 -3.0640625 1.61953125 -2.453125 1.1015625 C-1 0 -1 0 0 0 Z " fill="#7F2EC8" transform="translate(718,711)"/>
<path d="M0 0 C15.51 0 31.02 0 47 0 C47 15.51 47 31.02 47 47 C31.49 47 15.98 47 0 47 C0 31.49 0 15.98 0 0 Z " fill="#F3AB46" transform="translate(418,414)"/>
<path d="M0 0 C15.51 0 31.02 0 47 0 C47 15.51 47 31.02 47 47 C31.49 47 15.98 47 0 47 C0 31.49 0 15.98 0 0 Z " fill="#F8D7FC" transform="translate(532,361)"/>
<path d="M0 0 C15.18 0 30.36 0 46 0 C46 15.18 46 30.36 46 46 C30.82 46 15.64 46 0 46 C0 30.82 0 15.64 0 0 Z " fill="#F1E8FC" transform="translate(579,127)"/>
<path d="M0 0 C0.33 0 0.66 0 1 0 C1 15.18 1 30.36 1 46 C16.18 46 31.36 46 47 46 C47 30.82 47 15.64 47 0 C49.31 0 51.62 0 54 0 C54 17.82 54 35.64 54 54 C45.42 54 36.84 54 28 54 C28 95.58 28 137.16 28 180 C25.69 180 23.38 180 21 180 C21 136.11 21 92.22 21 47 C14.07 47 7.14 47 0 47 C0 31.49 0 15.98 0 0 Z " fill="#C77DBA" transform="translate(578,127)"/>
<path d="M0 0 C11.22 0 22.44 0 34 0 C34 13.53 34 27.06 34 41 C22.78 41 11.56 41 0 41 C0 27.47 0 13.94 0 0 Z " fill="#D98F66" transform="translate(505,487)"/>
<path d="M0 0 C10.89 0 21.78 0 33 0 C33 10.89 33 21.78 33 33 C22.11 33 11.22 33 0 33 C0 22.11 0 11.22 0 0 Z " fill="#E8BBFE" transform="translate(412,548)"/>
<path d="M0 0 C10.89 0 21.78 0 33 0 C33 10.89 33 21.78 33 33 C22.11 33 11.22 33 0 33 C0 22.11 0 11.22 0 0 Z " fill="#F3D2FD" transform="translate(559,14)"/>
<path d="M0 0 C0.33 0 0.66 0 1 0 C1 43.89 1 87.78 1 133 C11.89 133 22.78 133 34 133 C34 141.91 34 150.82 34 160 C22.78 160 11.56 160 0 160 C0 107.2 0 54.4 0 0 Z " fill="#E09474" transform="translate(598,174)"/>
<path d="M0 0 C8.58 0 17.16 0 26 0 C26 10.89 26 21.78 26 33 C17.42 33 8.84 33 0 33 C0 22.11 0 11.22 0 0 Z " fill="#FBDEFE" transform="translate(659,394)"/>
<path d="M0 0 C4.12595197 0.97518455 8.25058946 1.95581841 12.375 2.9375 C13.550625 3.21529297 14.72625 3.49308594 15.9375 3.77929688 C17.05898438 4.04677734 18.18046875 4.31425781 19.3359375 4.58984375 C20.89127197 4.95903931 20.89127197 4.95903931 22.47802734 5.33569336 C25 6 25 6 27 7 C27 13.6 27 20.2 27 27 C16.26959864 25.3057261 5.64285153 23.16962582 -5 21 C-6.7471529 15.93824846 -4.98275485 12.38939317 -3.0625 7.6875 C-2.77181641 6.94693359 -2.48113281 6.20636719 -2.18164062 5.44335938 C-1.46578953 3.62439349 -0.73441265 1.8115512 0 0 Z " fill="#8A1EE7" transform="translate(305,187)"/>
</svg>
